G04 #@! TF.GenerationSoftware,KiCad,Pcbnew,(5.1.5)-3*
G04 #@! TF.CreationDate,2020-05-25T15:33:18-04:00*
G04 #@! TF.ProjectId,vuv4x2,76757634-7832-42e6-9b69-6361645f7063,rev?*
G04 #@! TF.SameCoordinates,Original*
G04 #@! TF.FileFunction,Copper,L1,Top*
G04 #@! TF.FilePolarity,Positive*
%FSLAX46Y46*%
G04 Gerber Fmt 4.6, Leading zero omitted, Abs format (unit mm)*
G04 Created by KiCad (PCBNEW (5.1.5)-3) date 2020-05-25 15:33:18*
%MOMM*%
%LPD*%
G04 APERTURE LIST*
%ADD10R,2.200000X1.050000*%
%ADD11R,1.000000X1.000000*%
%ADD12C,2.082800*%
%ADD13C,0.508000*%
G04 APERTURE END LIST*
D10*
X109450000Y-62000000D03*
X109450000Y-65000000D03*
D11*
X107950000Y-63500000D03*
D10*
X109450000Y-72160000D03*
X109450000Y-75160000D03*
D11*
X107950000Y-73660000D03*
D10*
X109450000Y-77240000D03*
X109450000Y-80240000D03*
D11*
X107950000Y-78740000D03*
D10*
X109450000Y-87400000D03*
X109450000Y-90400000D03*
D11*
X107950000Y-88900000D03*
D10*
X88670000Y-90400000D03*
X88670000Y-87400000D03*
D11*
X90170000Y-88900000D03*
D10*
X88670000Y-80240000D03*
X88670000Y-77240000D03*
D11*
X90170000Y-78740000D03*
D10*
X88670000Y-75160000D03*
X88670000Y-72160000D03*
D11*
X90170000Y-73660000D03*
D10*
X88670000Y-65000000D03*
X88670000Y-62000000D03*
D11*
X90170000Y-63500000D03*
D12*
X92710000Y-62230000D03*
X92710000Y-64770000D03*
X92710000Y-72390000D03*
X92710000Y-74930000D03*
X105410000Y-74930000D03*
X105410000Y-72390000D03*
X105410000Y-64770000D03*
X105410000Y-62230000D03*
X92710000Y-77470000D03*
X92710000Y-80010000D03*
X92710000Y-87630000D03*
X92710000Y-90170000D03*
X105410000Y-90170000D03*
X105410000Y-87630000D03*
X105410000Y-80010000D03*
X105410000Y-77470000D03*
D13*
X92710000Y-62230000D02*
X91440000Y-62230000D01*
X91440000Y-62230000D02*
X90170000Y-63500000D01*
X88670000Y-65000000D02*
X92480000Y-65000000D01*
X92480000Y-65000000D02*
X92837000Y-64643000D01*
X92710000Y-72390000D02*
X91948000Y-72390000D01*
X88670000Y-75160000D02*
X92480000Y-75160000D01*
X88670000Y-80240000D02*
X92480000Y-80240000D01*
X88670000Y-90400000D02*
X92480000Y-90400000D01*
X91440000Y-72390000D02*
X90170000Y-73660000D01*
X91440000Y-77470000D02*
X90170000Y-78740000D01*
X91440000Y-87630000D02*
X90170000Y-88900000D01*
X92710000Y-72390000D02*
X91440000Y-72390000D01*
X92710000Y-77470000D02*
X91440000Y-77470000D01*
X92710000Y-87630000D02*
X91440000Y-87630000D01*
X105410000Y-80010000D02*
X106172000Y-80010000D01*
X109450000Y-87400000D02*
X105640000Y-87400000D01*
X106680000Y-90170000D02*
X107950000Y-88900000D01*
X105410000Y-90170000D02*
X106680000Y-90170000D01*
X109450000Y-62000000D02*
X105640000Y-62000000D01*
X105410000Y-64770000D02*
X106680000Y-64770000D01*
X106680000Y-80010000D02*
X107950000Y-78740000D01*
X106680000Y-64770000D02*
X107950000Y-63500000D01*
X106680000Y-74930000D02*
X107950000Y-73660000D01*
X105410000Y-80010000D02*
X106680000Y-80010000D01*
X105410000Y-74930000D02*
X106680000Y-74930000D01*
X109450000Y-77240000D02*
X105640000Y-77240000D01*
X109450000Y-72160000D02*
X105640000Y-72160000D01*
M02*
