G04 #@! TF.GenerationSoftware,KiCad,Pcbnew,(5.1.5)-3*
G04 #@! TF.CreationDate,2020-05-25T15:33:18-04:00*
G04 #@! TF.ProjectId,vuv4x2,76757634-7832-42e6-9b69-6361645f7063,rev?*
G04 #@! TF.SameCoordinates,Original*
G04 #@! TF.FileFunction,Soldermask,Top*
G04 #@! TF.FilePolarity,Negative*
%FSLAX46Y46*%
G04 Gerber Fmt 4.6, Leading zero omitted, Abs format (unit mm)*
G04 Created by KiCad (PCBNEW (5.1.5)-3) date 2020-05-25 15:33:18*
%MOMM*%
%LPD*%
G04 APERTURE LIST*
%ADD10C,0.100000*%
G04 APERTURE END LIST*
D10*
G36*
X112060000Y-92200000D02*
G01*
X86060000Y-92200000D01*
X86060000Y-60200000D01*
X112060000Y-60200000D01*
X112060000Y-92200000D01*
G37*
X112060000Y-92200000D02*
X86060000Y-92200000D01*
X86060000Y-60200000D01*
X112060000Y-60200000D01*
X112060000Y-92200000D01*
G36*
X105728641Y-89119580D02*
G01*
X105927446Y-89201927D01*
X106106365Y-89321477D01*
X106258523Y-89473635D01*
X106378073Y-89652554D01*
X106460420Y-89851359D01*
X106502400Y-90062408D01*
X106502400Y-90277592D01*
X106460420Y-90488641D01*
X106378073Y-90687446D01*
X106258523Y-90866365D01*
X106106365Y-91018523D01*
X105927446Y-91138073D01*
X105728641Y-91220420D01*
X105623116Y-91241410D01*
X105517593Y-91262400D01*
X105302407Y-91262400D01*
X105196884Y-91241410D01*
X105091359Y-91220420D01*
X104892554Y-91138073D01*
X104713635Y-91018523D01*
X104561477Y-90866365D01*
X104441927Y-90687446D01*
X104359580Y-90488641D01*
X104317600Y-90277592D01*
X104317600Y-90062408D01*
X104359580Y-89851359D01*
X104441927Y-89652554D01*
X104561477Y-89473635D01*
X104713635Y-89321477D01*
X104892554Y-89201927D01*
X105091359Y-89119580D01*
X105302407Y-89077600D01*
X105517593Y-89077600D01*
X105728641Y-89119580D01*
G37*
G36*
X93028641Y-89119580D02*
G01*
X93227446Y-89201927D01*
X93406365Y-89321477D01*
X93558523Y-89473635D01*
X93678073Y-89652554D01*
X93760420Y-89851359D01*
X93802400Y-90062408D01*
X93802400Y-90277592D01*
X93760420Y-90488641D01*
X93678073Y-90687446D01*
X93558523Y-90866365D01*
X93406365Y-91018523D01*
X93227446Y-91138073D01*
X93028641Y-91220420D01*
X92923116Y-91241410D01*
X92817593Y-91262400D01*
X92602407Y-91262400D01*
X92496884Y-91241410D01*
X92391359Y-91220420D01*
X92192554Y-91138073D01*
X92013635Y-91018523D01*
X91861477Y-90866365D01*
X91741927Y-90687446D01*
X91659580Y-90488641D01*
X91617600Y-90277592D01*
X91617600Y-90062408D01*
X91659580Y-89851359D01*
X91741927Y-89652554D01*
X91861477Y-89473635D01*
X92013635Y-89321477D01*
X92192554Y-89201927D01*
X92391359Y-89119580D01*
X92602407Y-89077600D01*
X92817593Y-89077600D01*
X93028641Y-89119580D01*
G37*
G36*
X89821000Y-90976000D02*
G01*
X87519000Y-90976000D01*
X87519000Y-89824000D01*
X89821000Y-89824000D01*
X89821000Y-90976000D01*
G37*
G36*
X110601000Y-90976000D02*
G01*
X108299000Y-90976000D01*
X108299000Y-89824000D01*
X110601000Y-89824000D01*
X110601000Y-90976000D01*
G37*
G36*
X108501000Y-89451000D02*
G01*
X107399000Y-89451000D01*
X107399000Y-88349000D01*
X108501000Y-88349000D01*
X108501000Y-89451000D01*
G37*
G36*
X90721000Y-89451000D02*
G01*
X89619000Y-89451000D01*
X89619000Y-88349000D01*
X90721000Y-88349000D01*
X90721000Y-89451000D01*
G37*
G36*
X105623116Y-86558590D02*
G01*
X105728641Y-86579580D01*
X105927446Y-86661927D01*
X106106365Y-86781477D01*
X106258523Y-86933635D01*
X106378073Y-87112554D01*
X106460420Y-87311359D01*
X106502400Y-87522408D01*
X106502400Y-87737592D01*
X106460420Y-87948641D01*
X106378073Y-88147446D01*
X106258523Y-88326365D01*
X106106365Y-88478523D01*
X105927446Y-88598073D01*
X105728641Y-88680420D01*
X105517593Y-88722400D01*
X105302407Y-88722400D01*
X105091359Y-88680420D01*
X104892554Y-88598073D01*
X104713635Y-88478523D01*
X104561477Y-88326365D01*
X104441927Y-88147446D01*
X104359580Y-87948641D01*
X104317600Y-87737592D01*
X104317600Y-87522408D01*
X104359580Y-87311359D01*
X104441927Y-87112554D01*
X104561477Y-86933635D01*
X104713635Y-86781477D01*
X104892554Y-86661927D01*
X105091359Y-86579580D01*
X105196884Y-86558590D01*
X105302407Y-86537600D01*
X105517593Y-86537600D01*
X105623116Y-86558590D01*
G37*
G36*
X92923116Y-86558590D02*
G01*
X93028641Y-86579580D01*
X93227446Y-86661927D01*
X93406365Y-86781477D01*
X93558523Y-86933635D01*
X93678073Y-87112554D01*
X93760420Y-87311359D01*
X93802400Y-87522408D01*
X93802400Y-87737592D01*
X93760420Y-87948641D01*
X93678073Y-88147446D01*
X93558523Y-88326365D01*
X93406365Y-88478523D01*
X93227446Y-88598073D01*
X93028641Y-88680420D01*
X92817593Y-88722400D01*
X92602407Y-88722400D01*
X92391359Y-88680420D01*
X92192554Y-88598073D01*
X92013635Y-88478523D01*
X91861477Y-88326365D01*
X91741927Y-88147446D01*
X91659580Y-87948641D01*
X91617600Y-87737592D01*
X91617600Y-87522408D01*
X91659580Y-87311359D01*
X91741927Y-87112554D01*
X91861477Y-86933635D01*
X92013635Y-86781477D01*
X92192554Y-86661927D01*
X92391359Y-86579580D01*
X92496884Y-86558590D01*
X92602407Y-86537600D01*
X92817593Y-86537600D01*
X92923116Y-86558590D01*
G37*
G36*
X110601000Y-87976000D02*
G01*
X108299000Y-87976000D01*
X108299000Y-86824000D01*
X110601000Y-86824000D01*
X110601000Y-87976000D01*
G37*
G36*
X89821000Y-87976000D02*
G01*
X87519000Y-87976000D01*
X87519000Y-86824000D01*
X89821000Y-86824000D01*
X89821000Y-87976000D01*
G37*
G36*
X93028641Y-78959580D02*
G01*
X93227446Y-79041927D01*
X93406365Y-79161477D01*
X93558523Y-79313635D01*
X93678073Y-79492554D01*
X93760420Y-79691359D01*
X93802400Y-79902408D01*
X93802400Y-80117592D01*
X93760420Y-80328641D01*
X93678073Y-80527446D01*
X93558523Y-80706365D01*
X93406365Y-80858523D01*
X93227446Y-80978073D01*
X93028641Y-81060420D01*
X92817593Y-81102400D01*
X92602407Y-81102400D01*
X92391359Y-81060420D01*
X92192554Y-80978073D01*
X92013635Y-80858523D01*
X91861477Y-80706365D01*
X91741927Y-80527446D01*
X91659580Y-80328641D01*
X91617600Y-80117592D01*
X91617600Y-79902408D01*
X91659580Y-79691359D01*
X91741927Y-79492554D01*
X91861477Y-79313635D01*
X92013635Y-79161477D01*
X92192554Y-79041927D01*
X92391359Y-78959580D01*
X92602407Y-78917600D01*
X92817593Y-78917600D01*
X93028641Y-78959580D01*
G37*
G36*
X105728641Y-78959580D02*
G01*
X105927446Y-79041927D01*
X106106365Y-79161477D01*
X106258523Y-79313635D01*
X106378073Y-79492554D01*
X106460420Y-79691359D01*
X106502400Y-79902408D01*
X106502400Y-80117592D01*
X106460420Y-80328641D01*
X106378073Y-80527446D01*
X106258523Y-80706365D01*
X106106365Y-80858523D01*
X105927446Y-80978073D01*
X105728641Y-81060420D01*
X105517593Y-81102400D01*
X105302407Y-81102400D01*
X105091359Y-81060420D01*
X104892554Y-80978073D01*
X104713635Y-80858523D01*
X104561477Y-80706365D01*
X104441927Y-80527446D01*
X104359580Y-80328641D01*
X104317600Y-80117592D01*
X104317600Y-79902408D01*
X104359580Y-79691359D01*
X104441927Y-79492554D01*
X104561477Y-79313635D01*
X104713635Y-79161477D01*
X104892554Y-79041927D01*
X105091359Y-78959580D01*
X105302407Y-78917600D01*
X105517593Y-78917600D01*
X105728641Y-78959580D01*
G37*
G36*
X89821000Y-80816000D02*
G01*
X87519000Y-80816000D01*
X87519000Y-79664000D01*
X89821000Y-79664000D01*
X89821000Y-80816000D01*
G37*
G36*
X110601000Y-80816000D02*
G01*
X108299000Y-80816000D01*
X108299000Y-79664000D01*
X110601000Y-79664000D01*
X110601000Y-80816000D01*
G37*
G36*
X90721000Y-79291000D02*
G01*
X89619000Y-79291000D01*
X89619000Y-78189000D01*
X90721000Y-78189000D01*
X90721000Y-79291000D01*
G37*
G36*
X108501000Y-79291000D02*
G01*
X107399000Y-79291000D01*
X107399000Y-78189000D01*
X108501000Y-78189000D01*
X108501000Y-79291000D01*
G37*
G36*
X105623116Y-76398590D02*
G01*
X105728641Y-76419580D01*
X105927446Y-76501927D01*
X106106365Y-76621477D01*
X106258523Y-76773635D01*
X106378073Y-76952554D01*
X106460420Y-77151359D01*
X106502400Y-77362408D01*
X106502400Y-77577592D01*
X106460420Y-77788641D01*
X106378073Y-77987446D01*
X106258523Y-78166365D01*
X106106365Y-78318523D01*
X105927446Y-78438073D01*
X105728641Y-78520420D01*
X105517593Y-78562400D01*
X105302407Y-78562400D01*
X105091359Y-78520420D01*
X104892554Y-78438073D01*
X104713635Y-78318523D01*
X104561477Y-78166365D01*
X104441927Y-77987446D01*
X104359580Y-77788641D01*
X104317600Y-77577592D01*
X104317600Y-77362408D01*
X104359580Y-77151359D01*
X104441927Y-76952554D01*
X104561477Y-76773635D01*
X104713635Y-76621477D01*
X104892554Y-76501927D01*
X105091359Y-76419580D01*
X105196884Y-76398590D01*
X105302407Y-76377600D01*
X105517593Y-76377600D01*
X105623116Y-76398590D01*
G37*
G36*
X92923116Y-76398590D02*
G01*
X93028641Y-76419580D01*
X93227446Y-76501927D01*
X93406365Y-76621477D01*
X93558523Y-76773635D01*
X93678073Y-76952554D01*
X93760420Y-77151359D01*
X93802400Y-77362408D01*
X93802400Y-77577592D01*
X93760420Y-77788641D01*
X93678073Y-77987446D01*
X93558523Y-78166365D01*
X93406365Y-78318523D01*
X93227446Y-78438073D01*
X93028641Y-78520420D01*
X92817593Y-78562400D01*
X92602407Y-78562400D01*
X92391359Y-78520420D01*
X92192554Y-78438073D01*
X92013635Y-78318523D01*
X91861477Y-78166365D01*
X91741927Y-77987446D01*
X91659580Y-77788641D01*
X91617600Y-77577592D01*
X91617600Y-77362408D01*
X91659580Y-77151359D01*
X91741927Y-76952554D01*
X91861477Y-76773635D01*
X92013635Y-76621477D01*
X92192554Y-76501927D01*
X92391359Y-76419580D01*
X92496884Y-76398590D01*
X92602407Y-76377600D01*
X92817593Y-76377600D01*
X92923116Y-76398590D01*
G37*
G36*
X110601000Y-77816000D02*
G01*
X108299000Y-77816000D01*
X108299000Y-76664000D01*
X110601000Y-76664000D01*
X110601000Y-77816000D01*
G37*
G36*
X89821000Y-77816000D02*
G01*
X87519000Y-77816000D01*
X87519000Y-76664000D01*
X89821000Y-76664000D01*
X89821000Y-77816000D01*
G37*
G36*
X105623116Y-73858590D02*
G01*
X105728641Y-73879580D01*
X105927446Y-73961927D01*
X106106365Y-74081477D01*
X106258523Y-74233635D01*
X106378073Y-74412554D01*
X106460420Y-74611359D01*
X106502400Y-74822408D01*
X106502400Y-75037592D01*
X106460420Y-75248641D01*
X106378073Y-75447446D01*
X106258523Y-75626365D01*
X106106365Y-75778523D01*
X105927446Y-75898073D01*
X105728641Y-75980420D01*
X105517593Y-76022400D01*
X105302407Y-76022400D01*
X105091359Y-75980420D01*
X104892554Y-75898073D01*
X104713635Y-75778523D01*
X104561477Y-75626365D01*
X104441927Y-75447446D01*
X104359580Y-75248641D01*
X104317600Y-75037592D01*
X104317600Y-74822408D01*
X104359580Y-74611359D01*
X104441927Y-74412554D01*
X104561477Y-74233635D01*
X104713635Y-74081477D01*
X104892554Y-73961927D01*
X105091359Y-73879580D01*
X105196884Y-73858590D01*
X105302407Y-73837600D01*
X105517593Y-73837600D01*
X105623116Y-73858590D01*
G37*
G36*
X92923116Y-73858590D02*
G01*
X93028641Y-73879580D01*
X93227446Y-73961927D01*
X93406365Y-74081477D01*
X93558523Y-74233635D01*
X93678073Y-74412554D01*
X93760420Y-74611359D01*
X93802400Y-74822408D01*
X93802400Y-75037592D01*
X93760420Y-75248641D01*
X93678073Y-75447446D01*
X93558523Y-75626365D01*
X93406365Y-75778523D01*
X93227446Y-75898073D01*
X93028641Y-75980420D01*
X92817593Y-76022400D01*
X92602407Y-76022400D01*
X92391359Y-75980420D01*
X92192554Y-75898073D01*
X92013635Y-75778523D01*
X91861477Y-75626365D01*
X91741927Y-75447446D01*
X91659580Y-75248641D01*
X91617600Y-75037592D01*
X91617600Y-74822408D01*
X91659580Y-74611359D01*
X91741927Y-74412554D01*
X91861477Y-74233635D01*
X92013635Y-74081477D01*
X92192554Y-73961927D01*
X92391359Y-73879580D01*
X92496884Y-73858590D01*
X92602407Y-73837600D01*
X92817593Y-73837600D01*
X92923116Y-73858590D01*
G37*
G36*
X89821000Y-75736000D02*
G01*
X87519000Y-75736000D01*
X87519000Y-74584000D01*
X89821000Y-74584000D01*
X89821000Y-75736000D01*
G37*
G36*
X110601000Y-75736000D02*
G01*
X108299000Y-75736000D01*
X108299000Y-74584000D01*
X110601000Y-74584000D01*
X110601000Y-75736000D01*
G37*
G36*
X90721000Y-74211000D02*
G01*
X89619000Y-74211000D01*
X89619000Y-73109000D01*
X90721000Y-73109000D01*
X90721000Y-74211000D01*
G37*
G36*
X108501000Y-74211000D02*
G01*
X107399000Y-74211000D01*
X107399000Y-73109000D01*
X108501000Y-73109000D01*
X108501000Y-74211000D01*
G37*
G36*
X93028641Y-71339580D02*
G01*
X93227446Y-71421927D01*
X93406365Y-71541477D01*
X93558523Y-71693635D01*
X93678073Y-71872554D01*
X93760420Y-72071359D01*
X93802400Y-72282408D01*
X93802400Y-72497592D01*
X93760420Y-72708641D01*
X93678073Y-72907446D01*
X93558523Y-73086365D01*
X93406365Y-73238523D01*
X93227446Y-73358073D01*
X93028641Y-73440420D01*
X92817593Y-73482400D01*
X92602407Y-73482400D01*
X92391359Y-73440420D01*
X92192554Y-73358073D01*
X92013635Y-73238523D01*
X91861477Y-73086365D01*
X91741927Y-72907446D01*
X91659580Y-72708641D01*
X91617600Y-72497592D01*
X91617600Y-72282408D01*
X91659580Y-72071359D01*
X91741927Y-71872554D01*
X91861477Y-71693635D01*
X92013635Y-71541477D01*
X92192554Y-71421927D01*
X92391359Y-71339580D01*
X92602407Y-71297600D01*
X92817593Y-71297600D01*
X93028641Y-71339580D01*
G37*
G36*
X105728641Y-71339580D02*
G01*
X105927446Y-71421927D01*
X106106365Y-71541477D01*
X106258523Y-71693635D01*
X106378073Y-71872554D01*
X106460420Y-72071359D01*
X106502400Y-72282408D01*
X106502400Y-72497592D01*
X106460420Y-72708641D01*
X106378073Y-72907446D01*
X106258523Y-73086365D01*
X106106365Y-73238523D01*
X105927446Y-73358073D01*
X105728641Y-73440420D01*
X105517593Y-73482400D01*
X105302407Y-73482400D01*
X105091359Y-73440420D01*
X104892554Y-73358073D01*
X104713635Y-73238523D01*
X104561477Y-73086365D01*
X104441927Y-72907446D01*
X104359580Y-72708641D01*
X104317600Y-72497592D01*
X104317600Y-72282408D01*
X104359580Y-72071359D01*
X104441927Y-71872554D01*
X104561477Y-71693635D01*
X104713635Y-71541477D01*
X104892554Y-71421927D01*
X105091359Y-71339580D01*
X105302407Y-71297600D01*
X105517593Y-71297600D01*
X105728641Y-71339580D01*
G37*
G36*
X110601000Y-72736000D02*
G01*
X108299000Y-72736000D01*
X108299000Y-71584000D01*
X110601000Y-71584000D01*
X110601000Y-72736000D01*
G37*
G36*
X89821000Y-72736000D02*
G01*
X87519000Y-72736000D01*
X87519000Y-71584000D01*
X89821000Y-71584000D01*
X89821000Y-72736000D01*
G37*
G36*
X93028641Y-63719580D02*
G01*
X93227446Y-63801927D01*
X93406365Y-63921477D01*
X93558523Y-64073635D01*
X93678073Y-64252554D01*
X93760420Y-64451359D01*
X93802400Y-64662408D01*
X93802400Y-64877592D01*
X93760420Y-65088641D01*
X93678073Y-65287446D01*
X93558523Y-65466365D01*
X93406365Y-65618523D01*
X93227446Y-65738073D01*
X93028641Y-65820420D01*
X92923116Y-65841410D01*
X92817593Y-65862400D01*
X92602407Y-65862400D01*
X92496884Y-65841410D01*
X92391359Y-65820420D01*
X92192554Y-65738073D01*
X92013635Y-65618523D01*
X91861477Y-65466365D01*
X91741927Y-65287446D01*
X91659580Y-65088641D01*
X91617600Y-64877592D01*
X91617600Y-64662408D01*
X91659580Y-64451359D01*
X91741927Y-64252554D01*
X91861477Y-64073635D01*
X92013635Y-63921477D01*
X92192554Y-63801927D01*
X92391359Y-63719580D01*
X92602407Y-63677600D01*
X92817593Y-63677600D01*
X93028641Y-63719580D01*
G37*
G36*
X105728641Y-63719580D02*
G01*
X105927446Y-63801927D01*
X106106365Y-63921477D01*
X106258523Y-64073635D01*
X106378073Y-64252554D01*
X106460420Y-64451359D01*
X106502400Y-64662408D01*
X106502400Y-64877592D01*
X106460420Y-65088641D01*
X106378073Y-65287446D01*
X106258523Y-65466365D01*
X106106365Y-65618523D01*
X105927446Y-65738073D01*
X105728641Y-65820420D01*
X105623116Y-65841410D01*
X105517593Y-65862400D01*
X105302407Y-65862400D01*
X105196884Y-65841410D01*
X105091359Y-65820420D01*
X104892554Y-65738073D01*
X104713635Y-65618523D01*
X104561477Y-65466365D01*
X104441927Y-65287446D01*
X104359580Y-65088641D01*
X104317600Y-64877592D01*
X104317600Y-64662408D01*
X104359580Y-64451359D01*
X104441927Y-64252554D01*
X104561477Y-64073635D01*
X104713635Y-63921477D01*
X104892554Y-63801927D01*
X105091359Y-63719580D01*
X105302407Y-63677600D01*
X105517593Y-63677600D01*
X105728641Y-63719580D01*
G37*
G36*
X110601000Y-65576000D02*
G01*
X108299000Y-65576000D01*
X108299000Y-64424000D01*
X110601000Y-64424000D01*
X110601000Y-65576000D01*
G37*
G36*
X89821000Y-65576000D02*
G01*
X87519000Y-65576000D01*
X87519000Y-64424000D01*
X89821000Y-64424000D01*
X89821000Y-65576000D01*
G37*
G36*
X90721000Y-64051000D02*
G01*
X89619000Y-64051000D01*
X89619000Y-62949000D01*
X90721000Y-62949000D01*
X90721000Y-64051000D01*
G37*
G36*
X108501000Y-64051000D02*
G01*
X107399000Y-64051000D01*
X107399000Y-62949000D01*
X108501000Y-62949000D01*
X108501000Y-64051000D01*
G37*
G36*
X105623116Y-61158590D02*
G01*
X105728641Y-61179580D01*
X105927446Y-61261927D01*
X106106365Y-61381477D01*
X106258523Y-61533635D01*
X106378073Y-61712554D01*
X106460420Y-61911359D01*
X106502400Y-62122408D01*
X106502400Y-62337592D01*
X106460420Y-62548641D01*
X106378073Y-62747446D01*
X106258523Y-62926365D01*
X106106365Y-63078523D01*
X105927446Y-63198073D01*
X105728641Y-63280420D01*
X105623116Y-63301410D01*
X105517593Y-63322400D01*
X105302407Y-63322400D01*
X105196884Y-63301410D01*
X105091359Y-63280420D01*
X104892554Y-63198073D01*
X104713635Y-63078523D01*
X104561477Y-62926365D01*
X104441927Y-62747446D01*
X104359580Y-62548641D01*
X104317600Y-62337592D01*
X104317600Y-62122408D01*
X104359580Y-61911359D01*
X104441927Y-61712554D01*
X104561477Y-61533635D01*
X104713635Y-61381477D01*
X104892554Y-61261927D01*
X105091359Y-61179580D01*
X105196884Y-61158590D01*
X105302407Y-61137600D01*
X105517593Y-61137600D01*
X105623116Y-61158590D01*
G37*
G36*
X92923116Y-61158590D02*
G01*
X93028641Y-61179580D01*
X93227446Y-61261927D01*
X93406365Y-61381477D01*
X93558523Y-61533635D01*
X93678073Y-61712554D01*
X93760420Y-61911359D01*
X93802400Y-62122408D01*
X93802400Y-62337592D01*
X93760420Y-62548641D01*
X93678073Y-62747446D01*
X93558523Y-62926365D01*
X93406365Y-63078523D01*
X93227446Y-63198073D01*
X93028641Y-63280420D01*
X92923116Y-63301410D01*
X92817593Y-63322400D01*
X92602407Y-63322400D01*
X92496884Y-63301410D01*
X92391359Y-63280420D01*
X92192554Y-63198073D01*
X92013635Y-63078523D01*
X91861477Y-62926365D01*
X91741927Y-62747446D01*
X91659580Y-62548641D01*
X91617600Y-62337592D01*
X91617600Y-62122408D01*
X91659580Y-61911359D01*
X91741927Y-61712554D01*
X91861477Y-61533635D01*
X92013635Y-61381477D01*
X92192554Y-61261927D01*
X92391359Y-61179580D01*
X92496884Y-61158590D01*
X92602407Y-61137600D01*
X92817593Y-61137600D01*
X92923116Y-61158590D01*
G37*
G36*
X110601000Y-62576000D02*
G01*
X108299000Y-62576000D01*
X108299000Y-61424000D01*
X110601000Y-61424000D01*
X110601000Y-62576000D01*
G37*
G36*
X89821000Y-62576000D02*
G01*
X87519000Y-62576000D01*
X87519000Y-61424000D01*
X89821000Y-61424000D01*
X89821000Y-62576000D01*
G37*
M02*
